<?xml version="1.0" encoding="UTF-8"?>
<!DOCTYPE svg PUBLIC "-//W3C//DTD SVG 1.1//EN" "http://www.w3.org/Graphics/SVG/1.1/DTD/svg11.dtd">
<svg xmlns="http://www.w3.org/2000/svg" version="1.1" width="512px" height="512px" style="shape-rendering:geometricPrecision; text-rendering:geometricPrecision; image-rendering:optimizeQuality; fill-rule:evenodd; clip-rule:evenodd" xmlns:xlink="http://www.w3.org/1999/xlink">
    <g>
        <path style="opacity:0.994" fill="#DA090D" d="M 129.5,-0.5 C 133.5,-0.5 137.5,-0.5 141.5,-0.5C 145.479,1.31481 148.312,4.31481 150,8.5C 150.5,25.4967 150.667,42.4967 150.5,59.5C 160.5,59.5 170.5,59.5 180.5,59.5C 180.333,42.4967 180.5,25.4967 181,8.5C 182.688,4.31481 185.521,1.31481 189.5,-0.5C 193.5,-0.5 197.5,-0.5 201.5,-0.5C 205.479,1.31481 208.312,4.31481 210,8.5C 210.5,25.4967 210.667,42.4967 210.5,59.5C 220.5,59.5 230.5,59.5 240.5,59.5C 240.333,42.4967 240.5,25.4967 241,8.5C 242.688,4.31481 245.521,1.31481 249.5,-0.5C 253.5,-0.5 257.5,-0.5 261.5,-0.5C 265.479,1.31481 268.312,4.31481 270,8.5C 270.5,25.4967 270.667,42.4967 270.5,59.5C 280.5,59.5 290.5,59.5 300.5,59.5C 300.333,42.4967 300.5,25.4967 301,8.5C 302.688,4.31481 305.521,1.31481 309.5,-0.5C 313.5,-0.5 317.5,-0.5 321.5,-0.5C 325.479,1.31481 328.312,4.31481 330,8.5C 330.5,25.4967 330.667,42.4967 330.5,59.5C 340.5,59.5 350.5,59.5 360.5,59.5C 360.333,42.4967 360.5,25.4967 361,8.5C 362.688,4.31481 365.521,1.31481 369.5,-0.5C 373.5,-0.5 377.5,-0.5 381.5,-0.5C 385.479,1.31481 388.312,4.31481 390,8.5C 390.5,25.4967 390.667,42.4967 390.5,59.5C 438.5,52.1667 458.833,72.5 451.5,120.5C 468.503,120.333 485.503,120.5 502.5,121C 506.685,122.688 509.685,125.521 511.5,129.5C 511.5,133.5 511.5,137.5 511.5,141.5C 509.685,145.479 506.685,148.312 502.5,150C 485.503,150.5 468.503,150.667 451.5,150.5C 451.5,160.5 451.5,170.5 451.5,180.5C 468.503,180.333 485.503,180.5 502.5,181C 506.685,182.688 509.685,185.521 511.5,189.5C 511.5,193.5 511.5,197.5 511.5,201.5C 509.685,205.479 506.685,208.312 502.5,210C 485.503,210.5 468.503,210.667 451.5,210.5C 451.5,220.5 451.5,230.5 451.5,240.5C 468.503,240.333 485.503,240.5 502.5,241C 506.685,242.688 509.685,245.521 511.5,249.5C 511.5,253.5 511.5,257.5 511.5,261.5C 509.685,265.479 506.685,268.312 502.5,270C 485.503,270.5 468.503,270.667 451.5,270.5C 451.5,280.5 451.5,290.5 451.5,300.5C 468.503,300.333 485.503,300.5 502.5,301C 506.685,302.688 509.685,305.521 511.5,309.5C 511.5,313.5 511.5,317.5 511.5,321.5C 509.685,325.479 506.685,328.312 502.5,330C 485.503,330.5 468.503,330.667 451.5,330.5C 451.5,340.5 451.5,350.5 451.5,360.5C 468.503,360.333 485.503,360.5 502.5,361C 506.685,362.688 509.685,365.521 511.5,369.5C 511.5,373.5 511.5,377.5 511.5,381.5C 509.685,385.479 506.685,388.312 502.5,390C 485.503,390.5 468.503,390.667 451.5,390.5C 458.845,438.488 438.512,458.821 390.5,451.5C 390.667,468.503 390.5,485.503 390,502.5C 388.312,506.685 385.479,509.685 381.5,511.5C 377.5,511.5 373.5,511.5 369.5,511.5C 365.521,509.685 362.688,506.685 361,502.5C 360.5,485.503 360.333,468.503 360.5,451.5C 350.5,451.5 340.5,451.5 330.5,451.5C 330.667,468.503 330.5,485.503 330,502.5C 328.312,506.685 325.479,509.685 321.5,511.5C 317.5,511.5 313.5,511.5 309.5,511.5C 305.521,509.685 302.688,506.685 301,502.5C 300.5,485.503 300.333,468.503 300.5,451.5C 290.5,451.5 280.5,451.5 270.5,451.5C 270.667,468.503 270.5,485.503 270,502.5C 268.312,506.685 265.479,509.685 261.5,511.5C 257.5,511.5 253.5,511.5 249.5,511.5C 245.521,509.685 242.688,506.685 241,502.5C 240.5,485.503 240.333,468.503 240.5,451.5C 230.5,451.5 220.5,451.5 210.5,451.5C 210.667,468.503 210.5,485.503 210,502.5C 208.312,506.685 205.479,509.685 201.5,511.5C 197.5,511.5 193.5,511.5 189.5,511.5C 185.521,509.685 182.688,506.685 181,502.5C 180.5,485.503 180.333,468.503 180.5,451.5C 170.5,451.5 160.5,451.5 150.5,451.5C 150.667,468.503 150.5,485.503 150,502.5C 148.312,506.685 145.479,509.685 141.5,511.5C 137.5,511.5 133.5,511.5 129.5,511.5C 125.521,509.685 122.688,506.685 121,502.5C 120.5,485.503 120.333,468.503 120.5,451.5C 72.4879,458.821 52.1546,438.488 59.5,390.5C 42.4967,390.667 25.4967,390.5 8.5,390C 4.31481,388.312 1.31481,385.479 -0.5,381.5C -0.5,377.5 -0.5,373.5 -0.5,369.5C 1.31481,365.521 4.31481,362.688 8.5,361C 25.4967,360.5 42.4967,360.333 59.5,360.5C 59.5,350.5 59.5,340.5 59.5,330.5C 42.4967,330.667 25.4967,330.5 8.5,330C 4.31481,328.312 1.31481,325.479 -0.5,321.5C -0.5,317.5 -0.5,313.5 -0.5,309.5C 1.31481,305.521 4.31481,302.688 8.5,301C 25.4967,300.5 42.4967,300.333 59.5,300.5C 59.5,290.5 59.5,280.5 59.5,270.5C 42.4967,270.667 25.4967,270.5 8.5,270C 4.31481,268.312 1.31481,265.479 -0.5,261.5C -0.5,257.5 -0.5,253.5 -0.5,249.5C 1.31481,245.521 4.31481,242.688 8.5,241C 25.4967,240.5 42.4967,240.333 59.5,240.5C 59.5,230.5 59.5,220.5 59.5,210.5C 42.4967,210.667 25.4967,210.5 8.5,210C 4.31481,208.312 1.31481,205.479 -0.5,201.5C -0.5,197.5 -0.5,193.5 -0.5,189.5C 1.31481,185.521 4.31481,182.688 8.5,181C 25.4967,180.5 42.4967,180.333 59.5,180.5C 59.5,170.5 59.5,160.5 59.5,150.5C 42.4967,150.667 25.4967,150.5 8.5,150C 4.31481,148.312 1.31481,145.479 -0.5,141.5C -0.5,137.5 -0.5,133.5 -0.5,129.5C 1.31481,125.521 4.31481,122.688 8.5,121C 25.4967,120.5 42.4967,120.333 59.5,120.5C 52.1667,72.5 72.5,52.1667 120.5,59.5C 120.333,42.4967 120.5,25.4967 121,8.5C 122.688,4.31481 125.521,1.31481 129.5,-0.5 Z M 134.5,119.5 C 215.167,119.333 295.834,119.5 376.5,120C 385.333,120.833 390.167,125.667 391,134.5C 391.667,215.167 391.667,295.833 391,376.5C 390.167,385.333 385.333,390.167 376.5,391C 295.833,391.667 215.167,391.667 134.5,391C 125.667,390.167 120.833,385.333 120,376.5C 119.333,295.833 119.333,215.167 120,134.5C 121.012,125.657 125.845,120.657 134.5,119.5 Z"/>
    </g>
    <g>
        <path style="opacity:1" fill="#DA090D" d="M 149.5,149.5 C 220.167,149.5 290.833,149.5 361.5,149.5C 361.5,220.167 361.5,290.833 361.5,361.5C 290.833,361.5 220.167,361.5 149.5,361.5C 149.5,290.833 149.5,220.167 149.5,149.5 Z"/>
    </g>
</svg>