<?xml version="1.0" encoding="UTF-8"?>
<!DOCTYPE svg PUBLIC "-//W3C//DTD SVG 1.1//EN" "http://www.w3.org/Graphics/SVG/1.1/DTD/svg11.dtd">
<svg xmlns="http://www.w3.org/2000/svg"  version="1.1" width="512px" height="512px" style="shape-rendering:geometricPrecision; text-rendering:geometricPrecision; image-rendering:optimizeQuality; fill-rule:evenodd; clip-rule:evenodd" xmlns:xlink="http://www.w3.org/1999/xlink">
    <g>
        <path style="opacity:0.987" fill="#DA090D" d="M 511.5,427.5 C 511.5,434.5 511.5,441.5 511.5,448.5C 509.525,451.961 506.525,454.127 502.5,455C 337.833,455.667 173.167,455.667 8.5,455C 4.47542,454.127 1.47542,451.961 -0.5,448.5C -0.5,441.5 -0.5,434.5 -0.5,427.5C 16.6001,385.719 33.4334,343.719 50,301.5C 50.3333,222.167 50.6667,142.833 51,63.5C 52.2704,59.2297 55.1037,56.7297 59.5,56C 190.167,55.3333 320.833,55.3333 451.5,56C 455.896,56.7297 458.73,59.2297 460,63.5C 460.333,142.833 460.667,222.167 461,301.5C 477.567,343.719 494.4,385.719 511.5,427.5 Z M 85.5,85.5 C 198.833,85.5 312.167,85.5 425.5,85.5C 425.5,152.167 425.5,218.833 425.5,285.5C 312.167,285.5 198.833,285.5 85.5,285.5C 85.5,218.833 85.5,152.167 85.5,85.5 Z M 216.5,385.5 C 242.5,385.5 268.5,385.5 294.5,385.5C 297.13,396.224 300.463,406.724 304.5,417C 271.833,417.667 239.167,417.667 206.5,417C 210.528,406.721 213.861,396.221 216.5,385.5 Z"/>
    </g>
</svg>