<?xml version="1.0" encoding="UTF-8"?>
<!DOCTYPE svg PUBLIC "-//W3C//DTD SVG 1.1//EN" "http://www.w3.org/Graphics/SVG/1.1/DTD/svg11.dtd">
<svg xmlns="http://www.w3.org/2000/svg" version="1.1" width="3950px" height="642px" style="shape-rendering:geometricPrecision; text-rendering:geometricPrecision; image-rendering:optimizeQuality; fill-rule:evenodd; clip-rule:evenodd" xmlns:xlink="http://www.w3.org/1999/xlink">
    <g>
        <path style="opacity:0.993" fill="#F72429" d="M 316.5,66.5 C 353.5,66.5 390.5,66.5 427.5,66.5C 427.5,230.167 427.5,393.833 427.5,557.5C 392.167,557.5 356.833,557.5 321.5,557.5C 321.667,544.829 321.5,532.162 321,519.5C 308.54,539.618 291.04,553.451 268.5,561C 249.726,567.586 230.393,570.42 210.5,569.5C 134.746,568.889 79.9128,534.889 46,467.5C 25.7156,419.708 21.0489,370.374 32,319.5C 44.9972,265.196 75.4972,224.029 123.5,196C 158.95,178.649 196.283,172.649 235.5,178C 266.798,182.898 293.631,196.398 316,218.5C 316.5,167.834 316.667,117.168 316.5,66.5 Z M 217.5,280.5 C 262.994,276.653 295.827,294.987 316,335.5C 328.322,371.254 323.322,404.254 301,434.5C 275.643,461.174 244.809,471.007 208.5,464C 177.854,456.69 156.354,438.523 144,409.5C 133.177,378.529 135.843,348.863 152,320.5C 168.193,297.825 190.027,284.492 217.5,280.5 Z"/>
    </g>
    <g>
        <path style="opacity:0.993" fill="#F72429" d="M 506.5,66.5 C 543.5,66.5 580.5,66.5 617.5,66.5C 617.5,94.5 617.5,122.5 617.5,150.5C 580.5,150.5 543.5,150.5 506.5,150.5C 506.5,122.5 506.5,94.5 506.5,66.5 Z"/>
    </g>
    <g>
        <path style="opacity:0.993" fill="#F72429" d="M 1128.5,66.5 C 1165.5,66.5 1202.5,66.5 1239.5,66.5C 1239.33,118.501 1239.5,170.501 1240,222.5C 1256.54,196.964 1280.04,182.131 1310.5,178C 1337.73,174.233 1364.4,176.567 1390.5,185C 1427.46,200.728 1451.63,227.894 1463,266.5C 1467.52,283.872 1469.86,301.539 1470,319.5C 1470.5,398.833 1470.67,478.166 1470.5,557.5C 1433.5,557.5 1396.5,557.5 1359.5,557.5C 1359.67,486.833 1359.5,416.166 1359,345.5C 1355.33,293.826 1328.16,273.326 1277.5,284C 1259,290.506 1247.5,303.339 1243,322.5C 1241.35,329.07 1240.35,335.736 1240,342.5C 1239.5,414.166 1239.33,485.833 1239.5,557.5C 1202.5,557.5 1165.5,557.5 1128.5,557.5C 1128.5,393.833 1128.5,230.167 1128.5,66.5 Z"/>
    </g>
    <g>
        <path style="opacity:0.993" fill="#F72429" d="M 2382.5,66.5 C 2419.5,66.5 2456.5,66.5 2493.5,66.5C 2493.5,107.167 2493.5,147.833 2493.5,188.5C 2511.17,188.5 2528.83,188.5 2546.5,188.5C 2546.5,216.833 2546.5,245.167 2546.5,273.5C 2528.83,273.5 2511.17,273.5 2493.5,273.5C 2493.5,368.167 2493.5,462.833 2493.5,557.5C 2456.5,557.5 2419.5,557.5 2382.5,557.5C 2382.5,462.833 2382.5,368.167 2382.5,273.5C 2364.5,273.5 2346.5,273.5 2328.5,273.5C 2328.5,245.167 2328.5,216.833 2328.5,188.5C 2346.5,188.5 2364.5,188.5 2382.5,188.5C 2382.5,147.833 2382.5,107.167 2382.5,66.5 Z"/>
    </g>
    <g>
        <path style="opacity:0.993" fill="#F72429" d="M 3055.5,66.5 C 3092.5,66.5 3129.5,66.5 3166.5,66.5C 3166.5,107.167 3166.5,147.833 3166.5,188.5C 3184.17,188.5 3201.83,188.5 3219.5,188.5C 3219.5,216.833 3219.5,245.167 3219.5,273.5C 3201.83,273.5 3184.17,273.5 3166.5,273.5C 3166.5,368.167 3166.5,462.833 3166.5,557.5C 3129.5,557.5 3092.5,557.5 3055.5,557.5C 3055.5,462.833 3055.5,368.167 3055.5,273.5C 3037.5,273.5 3019.5,273.5 3001.5,273.5C 3001.5,245.167 3001.5,216.833 3001.5,188.5C 3019.5,188.5 3037.5,188.5 3055.5,188.5C 3055.5,147.833 3055.5,107.167 3055.5,66.5 Z"/>
    </g>
    <g>
        <path style="opacity:0.991" fill="#F72429" d="M 853.5,176.5 C 920,171.38 976.5,192.38 1023,239.5C 1046.93,265.697 1062.1,296.364 1068.5,331.5C 1031.17,331.667 993.832,331.5 956.5,331C 936.884,292.853 905.551,276.186 862.5,281C 836.8,285.092 817.3,298.259 804,320.5C 786.001,355.518 786.001,390.518 804,425.5C 829.104,461.427 862.937,473.594 905.5,462C 928.338,454.167 945.338,439.5 956.5,418C 994.165,417.5 1031.83,417.333 1069.5,417.5C 1054.78,478.386 1019.45,522.886 963.5,551C 928.836,566.833 892.502,572.833 854.5,569C 781.708,559.53 728.874,522.03 696,456.5C 674.653,405.158 672.987,353.158 691,300.5C 716.927,238.235 762.427,198.402 827.5,181C 836.289,179.369 844.956,177.869 853.5,176.5 Z"/>
    </g>
    <g>
        <path style="opacity:0.991" fill="#F72429" d="M 2765.5,176.5 C 2847.65,174.475 2909.48,208.475 2951,278.5C 2972.24,322.437 2978.24,368.437 2969,416.5C 2954.28,479.885 2917.45,525.385 2858.5,553C 2802.17,575 2745.83,575 2689.5,553C 2608.35,512.062 2570.52,445.895 2576,354.5C 2583.41,281.137 2619.91,227.97 2685.5,195C 2711.13,183.777 2737.8,177.611 2765.5,176.5 Z M 2768.5,280.5 C 2809.41,280.693 2838.24,299.36 2855,336.5C 2869.81,379.472 2860.65,416.306 2827.5,447C 2799.93,466.938 2770.26,470.604 2738.5,458C 2698.63,435.429 2681.8,401.262 2688,355.5C 2697.75,311.918 2724.58,286.918 2768.5,280.5 Z"/>
    </g>
    <g>
        <path style="opacity:0.991" fill="#F72429" d="M 506.5,188.5 C 543.5,188.5 580.5,188.5 617.5,188.5C 617.5,311.5 617.5,434.5 617.5,557.5C 580.5,557.5 543.5,557.5 506.5,557.5C 506.5,434.5 506.5,311.5 506.5,188.5 Z"/>
    </g>
    <g>
        <path style="opacity:0.989" fill="#F72429" d="M 1519.5,188.5 C 1557.83,188.5 1596.17,188.5 1634.5,188.5C 1657.2,264.946 1680.36,341.279 1704,417.5C 1728.25,341.737 1751.92,265.737 1775,189.5C 1813.43,188.171 1851.93,188.171 1890.5,189.5C 1846.23,311.795 1802.07,434.129 1758,556.5C 1722.24,557.496 1686.41,557.83 1650.5,557.5C 1606.63,434.558 1562.96,311.558 1519.5,188.5 Z"/>
    </g>
    <g>
        <path style="opacity:0.992" fill="#F72429" d="M 1938.5,188.5 C 1975.5,188.5 2012.5,188.5 2049.5,188.5C 2049.33,262.167 2049.5,335.834 2050,409.5C 2051.89,446.391 2071.22,465.391 2108,466.5C 2140.97,465.846 2160.97,449.513 2168,417.5C 2168.89,412.53 2169.55,407.53 2170,402.5C 2170.5,331.167 2170.67,259.834 2170.5,188.5C 2207.5,188.5 2244.5,188.5 2281.5,188.5C 2281.5,311.5 2281.5,434.5 2281.5,557.5C 2246.5,557.5 2211.5,557.5 2176.5,557.5C 2176.67,544.496 2176.5,531.496 2176,518.5C 2160.17,549.618 2134.67,566.451 2099.5,569C 2059.66,574.172 2023.32,565.505 1990.5,543C 1957.71,515.242 1940.54,479.742 1939,436.5C 1938.5,353.834 1938.33,271.167 1938.5,188.5 Z"/>
    </g>
    <g>
        <path style="opacity:0.99" fill="#F72429" d="M 3817.5,284.5 C 3848.88,280.84 3876.88,288.674 3901.5,308C 3914.81,320.775 3923.31,336.275 3927,354.5C 3928.37,361.446 3929.37,368.446 3930,375.5C 3930.5,436.166 3930.67,496.832 3930.5,557.5C 3903.83,557.5 3877.17,557.5 3850.5,557.5C 3850.67,504.832 3850.5,452.166 3850,399.5C 3846.13,366.951 3827.97,354.118 3795.5,361C 3776.92,366.952 3767.08,379.786 3766,399.5C 3765.5,452.166 3765.33,504.832 3765.5,557.5C 3738.83,557.5 3712.17,557.5 3685.5,557.5C 3685.5,469.5 3685.5,381.5 3685.5,293.5C 3710.17,293.5 3734.83,293.5 3759.5,293.5C 3759.33,302.839 3759.5,312.173 3760,321.5C 3773.31,300.023 3792.47,287.69 3817.5,284.5 Z"/>
    </g>
    <g>
        <path style="opacity:0.984" fill="#F72429" d="M 3383.5,292.5 C 3411.17,292.167 3438.84,292.5 3466.5,293.5C 3483.44,347.808 3500.27,402.142 3517,456.5C 3533.87,402.227 3550.54,347.894 3567,293.5C 3594.76,292.339 3622.59,292.172 3650.5,293C 3618.4,381.022 3586.74,469.189 3555.5,557.5C 3529.59,557.828 3503.76,557.495 3478,556.5C 3446.39,468.514 3414.89,380.514 3383.5,292.5 Z"/>
    </g>
    <g>
        <path style="opacity:0.988" fill="#F72429" d="M 3260.5,476.5 C 3288.17,476.5 3315.83,476.5 3343.5,476.5C 3343.5,503.5 3343.5,530.5 3343.5,557.5C 3315.83,557.5 3288.17,557.5 3260.5,557.5C 3260.5,530.5 3260.5,503.5 3260.5,476.5 Z"/>
    </g>
</svg>